#!OML:ASF X:\für Bonn\!DataBase\2005_08_12_Daniel\c3d\Daniel.ASF
:FULLY-SPECIFIED
:DEGREES
219
root 4.80776 16.9908 -2.23155 -754.383 -75.6441 740.625
lowerback 14.8713 -5.10415 3.64909
upperback 5.25326 -6.49958 -1.2901
thorax -3.2701 -3.30454 -2.23964
lowerneck 14.7607 16.312 4.65174
upperneck 8.74251 22.0916 -7.11069
head 1.90763 11.079 -3.47986
rclavicle -2.84262e-014 1.03368e-014
rhumerus -55.7347 -15.9473 -51.7689
rradius 15.201
rwrist 37.0741
rhand -12.1736 8.24679
rfingers 7.12502
rthumb 13.8897 -21.2694
lclavicle -2.84262e-014 1.03368e-014
lhumerus -15.7786 14.479 64.1549
lradius 130.29
lwrist 211.152
lhand -7.21277 20.1414
lfingers 7.12502
lthumb 18.6662 49.2658
rfemur -10.6251 -3.34114 15.9983
rtibia 48.4529
rfoot -18.0256 7.67603
rtoes -0.995952
lfemur -29.6476 1.00485 -22.955
ltibia 96.906
lfoot 9.60287 -1.90894
ltoes -19.407
220
root 4.84083 17.004 -2.22667 -753.037 -75.3822 739.752
lowerback 14.5226 -5.38269 3.8477
upperback 5.06387 -6.8329 -1.13945
thorax -3.31067 -3.46745 -2.14895
lowerneck 14.6532 16.3704 4.54651
upperneck 8.55085 22.1634 -7.34668
head 1.88356 11.1171 -3.53777
rclavicle -4.97956e-014 -1.11319e-014
rhumerus -55.6313 -15.8453 -51.9814
rradius 15.2731
rwrist 35.7707
rhand -11.8447 8.16948
rfingers 7.12502
rthumb 14.2067 -21.3247
lclavicle -4.97956e-014 -1.11319e-014
lhumerus -15.6566 14.0448 64.921
lradius 130.241
lwrist 210.887
lhand -7.27754 20.4656
lfingers 7.12502
lthumb 18.6039 49.596
rfemur -11.0862 -2.13229 15.8141
rtibia 48.2213
rfoot -17.4309 9.38396
rtoes -1.14427
lfemur -28.5157 0.893319 -22.4782
ltibia 95.716
lfoot 9.41252 -2.39189
ltoes -18.9174
221
root 4.87373 17.0168 -2.22117 -751.761 -75.1527 738.955
lowerback 14.1428 -5.64797 4.03481
upperback 4.88885 -7.154 -0.972692
thorax -3.31497 -3.62447 -2.04318
lowerneck 14.5243 16.4316 4.3861
upperneck 8.36592 22.2297 -7.57287
head 1.85711 11.1502 -3.58266
rclavicle -4.23411e-014 -1.51076e-014
rhumerus -55.5105 -15.8826 -52.112
rradius 15.377
rwrist 34.5978
rhand -11.6437 8.09372
rfingers 7.12502
rthumb 14.4003 -21.3867
lclavicle -4.23411e-014 -1.51076e-014
lhumerus -15.502 13.6139 65.7431
lradius 130.158
lwrist 210.604
lhand -7.28265 20.7336
lfingers 7.12502
lthumb 18.599 49.8645
rfemur -11.543 -0.979418 15.641
rtibia 47.9388
rfoot -16.9179 10.9351
rtoes -1.79749
lfemur -27.4002 0.82319 -21.9662
ltibia 94.4825
lfoot 9.25247 -2.91028
ltoes -18.5505
222
root 4.90541 17.0284 -2.21583 -750.584 -74.9361 738.241
lowerback 13.7515 -5.90096 4.20296
upperback 4.72499 -7.46509 -0.809237
thorax -3.2982 -3.77675 -1.93646
lowerneck 14.3943 16.491 4.23712
upperneck 8.18392 22.2957 -7.81248
head 1.83516 11.1836 -3.63306
rclavicle 7.02704e-014 2.06736e-014
rhumerus -55.3736 -15.8143 -52.4161
rradius 15.5713
rwrist 33.2529
rhand -11.5338 8.03148
rfingers 7.12502
rthumb 14.5063 -21.4414
lclavicle 7.02704e-014 2.06736e-014
lhumerus -15.3085 13.1881 66.62
lradius 130.001
lwrist 210.302
lhand -7.25005 21.0445
lfingers 7.12502
lthumb 18.6303 50.1723
rfemur -11.9472 0.128474 15.4719
rtibia 47.6066
rfoot -16.494 12.4044
rtoes -2.74829
lfemur -26.2961 0.79061 -21.4316
ltibia 93.2273
lfoot 9.12277 -3.48072
ltoes -18.1335
223
root 4.93578 17.0372 -2.20987 -749.508 -74.7473 737.629
lowerback 13.3436 -6.13744 4.37138
upperback 4.54943 -7.75723 -0.664012
thorax -3.28545 -3.91986 -1.85544
lowerneck 14.3302 16.5353 4.14314
upperneck 7.99887 22.3466 -8.03901
head 1.8054 11.2121 -3.69402
rclavicle 6.85807e-015 -1.43125e-014
rhumerus -55.2853 -15.7988 -52.7064
rradius 15.8014
rwrist 31.9207
rhand -11.4421 7.98389
rfingers 7.12502
rthumb 14.5946 -21.4826
lclavicle 6.85807e-015 -1.43125e-014
lhumerus -15.1383 12.7618 67.5454
lradius 129.79
lwrist 209.973
lhand -7.2134 21.4028
lfingers 7.12502
lthumb 18.6656 50.5273
rfemur -12.3094 1.31129 15.3105
rtibia 47.246
rfoot -16.1543 13.6802
rtoes -3.001
lfemur -25.2075 0.797764 -20.8838
ltibia 91.9706
lfoot 8.95403 -4.11427
ltoes -17.9563
224
root 4.96464 17.0427 -2.20283 -748.5 -74.5719 737.053
lowerback 12.9149 -6.35904 4.52016
upperback 4.40904 -8.03746 -0.512332
thorax -3.21961 -4.057 -1.76641
lowerneck 14.2671 16.5764 4.02583
upperneck 7.76446 22.3886 -8.29022
head 1.75837 11.2373 -3.76261
rclavicle 6.16232e-014 -4.05521e-014
rhumerus -55.1635 -15.8203 -53.0322
rradius 16.061
rwrist 30.6223
rhand -11.4438 7.91361
rfingers 7.12502
rthumb 14.5929 -21.553
lclavicle 6.16232e-014 -4.05521e-014
lhumerus -14.9687 12.3783 68.5483
lradius 129.564
lwrist 209.628
lhand -7.23969 21.7115
lfingers 7.12502
lthumb 18.6403 50.8384
rfemur -12.605 2.3938 15.1869
rtibia 46.8794
rfoot -15.9009 14.6502
rtoes -2.47144
lfemur -24.1166 0.81943 -20.3188
ltibia 90.7269
lfoot 8.75379 -4.79697
ltoes -17.8349
225
root 4.99246 17.0454 -2.19403 -747.651 -74.397 736.601
lowerback 12.5149 -6.56907 4.615
upperback 4.27125 -8.30998 -0.361555
thorax -3.15819 -4.19073 -1.65022
lowerneck 14.2146 16.6154 3.90066
upperneck 7.52632 22.4245 -8.52615
head 1.70498 11.2598 -3.82684
rclavicle 2.98177e-014 -7.95139e-016
rhumerus -55.0332 -15.7399 -53.4716
rradius 16.3847
rwrist 29.1989
rhand -11.5145 7.83162
rfingers 7.12502
rthumb 14.5248 -21.6399
lclavicle 2.98177e-014 -7.95139e-016
lhumerus -14.8343 12.0497 69.5434
lradius 129.342
lwrist 209.342
lhand -7.30908 21.9368
lfingers 7.12502
lthumb 18.5735 51.0701
rfemur -12.8725 3.18355 15.0917
rtibia 46.5392
rfoot -15.7913 15.3164
rtoes -1.79105
lfemur -23.0129 0.858083 -19.7857
ltibia 89.5009
lfoot 8.4869 -5.5112
ltoes -17.8489
226
root 5.01947 17.044 -2.18391 -746.965 -74.2269 736.253
lowerback 12.1472 -6.76689 4.67201
upperback 4.157 -8.5727 -0.225553
thorax -3.08477 -4.31981 -1.53111
lowerneck 14.1622 16.6471 3.81779
upperneck 7.2753 22.4565 -8.76523
head 1.65235 11.2823 -3.89871
rclavicle -3.17062e-014 0
rhumerus -54.8654 -15.6148 -54.017
rradius 16.7378
rwrist 27.6358
rhand -11.6032 7.77831
rfingers 7.12502
rthumb 14.4394 -21.6994
lclavicle -3.17062e-014 0
lhumerus -14.7423 11.7463 70.5446
lradius 129.147
lwrist 209.011
lhand -7.38255 22.1146
lfingers 7.12502
lthumb 18.5029 51.2546
rfemur -13.0852 3.71654 15.0514
rtibia 46.2446
rfoot -15.9427 15.6135
rtoes -1.66444
lfemur -21.8625 0.902129 -19.2744
ltibia 88.2989
lfoot 8.08744 -6.30732
ltoes -18.225
227
root 5.04566 17.0421 -2.17247 -746.508 -74.0579 736.1
lowerback 11.8017 -6.94512 4.66797
upperback 4.05599 -8.81795 -0.114414
thorax -3.00238 -4.44033 -1.40856
lowerneck 14.1352 16.6752 3.71747
upperneck 7.00866 22.5021 -9.29373
head 1.44656 11.3019 -3.69751
rclavicle -3.86636e-014 -7.95139e-015
rhumerus -54.6861 -15.4476 -54.6678
rradius 17.119
rwrist 26.0159
rhand -11.8006 7.72636
rfingers 7.12502
rthumb 14.2491 -21.7648
lclavicle -3.86636e-014 -7.95139e-015
lhumerus -14.6432 11.4552 71.5072
lradius 128.946
lwrist 208.739
lhand -7.50887 22.1654
lfingers 7.12502
lthumb 18.3813 51.3169
rfemur -13.2757 4.10373 15.0093
rtibia 46.0048
rfoot -16.2753 15.6427
rtoes -1.94971
lfemur -20.6676 0.95592 -18.8251
ltibia 87.0845
lfoot 7.58018 -7.11672
ltoes -19.0516
228
root 5.07265 17.0387 -2.16008 -746.07 -73.8987 735.931
lowerback 11.4888 -7.12001 4.66047
upperback 3.97109 -9.05903 -0.00282426
thorax -2.91849 -4.55901 -1.28391
lowerneck 13.9833 16.6909 3.68259
upperneck 6.80442 22.5237 -9.51929
head 1.42872 11.3178 -3.74998
rclavicle -1.28216e-013 1.27222e-014
rhumerus -54.4577 -15.3316 -55.3226
rradius 17.4844
rwrist 24.4368
rhand -12.0415 7.7598
rfingers 7.12502
rthumb 14.017 -21.7476
lclavicle -1.28216e-013 1.27222e-014
lhumerus -14.5596 11.1851 72.4551
lradius 128.785
lwrist 208.392
lhand -7.62405 22.0878
lfingers 7.12502
lthumb 18.2705 51.2497
rfemur -13.4618 4.39839 15.031
rtibia 45.8292
rfoot -16.7833 15.4166
rtoes -2.66809
lfemur -19.4576 1.0076 -18.3711
ltibia 85.8665
lfoot 7.03198 -7.94358
ltoes -19.9954
